<?xml version="1.0" encoding="UTF-8" standalone="no"?>
<!DOCTYPE svg PUBLIC "-//W3C//DTD SVG 1.1//EN" "http://www.w3.org/Graphics/SVG/1.1/DTD/svg11.dtd">
<svg width="100%" height="100%" viewBox="0 0 1000 1000" version="1.1" xmlns="http://www.w3.org/2000/svg" xmlns:xlink="http://www.w3.org/1999/xlink" xml:space="preserve" xmlns:serif="http://www.serif.com/" style="fill-rule:evenodd;clip-rule:evenodd;stroke-linejoin:round;stroke-miterlimit:1.41421;">
    <g transform="matrix(14.9425,0,0,14.9425,38.1305,11.68)">
        <path d="M53,35.5L11,35.5C7.967,35.5 5.5,37.968 5.5,41L5.5,43C5.5,46.032 7.967,48.5 11,48.5L53,48.5C56.032,48.5 58.5,46.032 58.5,43L58.5,41C58.5,37.968 56.032,35.5 53,35.5ZM57.5,43C57.5,45.481 55.481,47.5 53,47.5L11,47.5C8.519,47.5 6.5,45.481 6.5,43L6.5,41C6.5,38.519 8.519,36.5 11,36.5L53,36.5C55.481,36.5 57.5,38.519 57.5,41L57.5,43Z" style="fill:rgb(255,205,0);fill-rule:nonzero;"/>
    </g>
    <g transform="matrix(14.9425,0,0,14.9425,38.1305,11.68)">
        <path d="M12,39.5C10.622,39.5 9.5,40.621 9.5,42C9.5,43.379 10.622,44.5 12,44.5C13.378,44.5 14.5,43.379 14.5,42C14.5,40.621 13.378,39.5 12,39.5ZM12,43.5C11.173,43.5 10.5,42.827 10.5,42C10.5,41.173 11.173,40.5 12,40.5C12.827,40.5 13.5,41.173 13.5,42C13.5,42.827 12.827,43.5 12,43.5Z" style="fill-rule:nonzero;"/>
    </g>
    <g transform="matrix(14.9425,0,0,14.9425,38.1305,11.68)">
        <path d="M24,39.5C22.622,39.5 21.5,40.621 21.5,42C21.5,43.379 22.622,44.5 24,44.5C25.378,44.5 26.5,43.379 26.5,42C26.5,40.621 25.378,39.5 24,39.5ZM24,43.5C23.173,43.5 22.5,42.827 22.5,42C22.5,41.173 23.173,40.5 24,40.5C24.827,40.5 25.5,41.173 25.5,42C25.5,42.827 24.827,43.5 24,43.5Z" style="fill-rule:nonzero;"/>
    </g>
    <g transform="matrix(14.9425,0,0,14.9425,38.1305,11.68)">
        <path d="M40,39.5C38.621,39.5 37.5,40.621 37.5,42C37.5,43.379 38.621,44.5 40,44.5C41.379,44.5 42.5,43.379 42.5,42C42.5,40.621 41.379,39.5 40,39.5ZM40,43.5C39.173,43.5 38.5,42.827 38.5,42C38.5,41.173 39.173,40.5 40,40.5C40.827,40.5 41.5,41.173 41.5,42C41.5,42.827 40.827,43.5 40,43.5Z" style="fill-rule:nonzero;"/>
    </g>
    <g transform="matrix(14.9425,0,0,14.9425,38.1305,11.68)">
        <path d="M52,39.5C50.621,39.5 49.5,40.621 49.5,42C49.5,43.379 50.621,44.5 52,44.5C53.379,44.5 54.5,43.379 54.5,42C54.5,40.621 53.379,39.5 52,39.5ZM52,43.5C51.173,43.5 50.5,42.827 50.5,42C50.5,41.173 51.173,40.5 52,40.5C52.827,40.5 53.5,41.173 53.5,42C53.5,42.827 52.827,43.5 52,43.5Z" style="fill-rule:nonzero;"/>
    </g>
    <g transform="matrix(14.9425,0,0,14.9425,38.1305,11.68)">
        <path d="M15.809,32.461C15.87,32.487 15.935,32.5 16,32.5L32,32.5C32.065,32.5 32.13,32.487 32.191,32.461C32.314,32.411 32.411,32.313 32.462,32.19C32.487,32.13 32.5,32.065 32.5,32L32.5,16C32.5,15.935 32.487,15.87 32.461,15.809C32.411,15.686 32.313,15.589 32.19,15.538C32.13,15.513 32.065,15.5 32,15.5L16,15.5C15.935,15.5 15.87,15.513 15.809,15.539C15.686,15.589 15.589,15.687 15.538,15.81C15.513,15.87 15.5,15.935 15.5,16L15.5,32C15.5,32.065 15.513,32.13 15.539,32.191C15.589,32.313 15.687,32.411 15.809,32.461ZM17.646,18.354C17.744,18.451 17.872,18.5 18,18.5C18.128,18.5 18.256,18.451 18.354,18.354C18.549,18.159 18.549,17.842 18.354,17.647L17.207,16.5L30.793,16.5L29.647,17.646C29.452,17.841 29.452,18.158 29.647,18.353C29.744,18.451 29.872,18.5 30,18.5C30.128,18.5 30.256,18.451 30.354,18.354L31.5,17.208L31.5,30.794L30.354,29.648C30.159,29.453 29.842,29.453 29.647,29.648C29.452,29.843 29.452,30.16 29.647,30.355L30.793,31.501L17.207,31.501L18.353,30.355C18.548,30.16 18.548,29.843 18.353,29.648C18.158,29.453 17.841,29.453 17.646,29.648L16.5,30.793L16.5,17.207L17.646,18.354Z" style="fill-rule:nonzero;"/>
    </g>
</svg>
