<?xml version="1.0" encoding="UTF-8" standalone="no"?>
<!DOCTYPE svg PUBLIC "-//W3C//DTD SVG 1.1//EN" "http://www.w3.org/Graphics/SVG/1.1/DTD/svg11.dtd">
<svg width="100%" height="100%" viewBox="0 0 1000 1000" version="1.1" xmlns="http://www.w3.org/2000/svg" xmlns:xlink="http://www.w3.org/1999/xlink" xml:space="preserve" xmlns:serif="http://www.serif.com/" style="fill-rule:evenodd;clip-rule:evenodd;stroke-linejoin:round;stroke-miterlimit:1.41421;">
    <g transform="matrix(10.4886,0,0,10.4886,164.361,164.368)">
        <path d="M4.428,19.102L14.229,25.165L11.358,27.016L12.442,28.697L16.113,26.331L31.501,35.851C31.665,35.953 31.851,36.002 32.037,36C32.223,35.998 32.408,35.945 32.57,35.841L47.779,26.036L51.493,28.334L52.546,26.633L49.641,24.836L59.327,18.591C59.615,18.405 59.788,18.084 59.785,17.741C59.782,17.398 59.603,17.081 59.311,16.9L32.237,0.151C31.909,-0.052 31.493,-0.048 31.169,0.161L4.412,17.411C4.124,17.597 3.951,17.918 3.954,18.261C3.957,18.604 4.136,18.921 4.428,19.102ZM31.722,2.184L56.912,17.767L32.017,33.817L6.827,18.234L31.722,2.184Z" style="fill-rule:nonzero;"/>
        <path d="M32.523,30.841L35.515,28.912L34.431,27.231L31.97,28.818L29.423,27.242L28.37,28.943L31.454,30.851C31.618,30.953 31.804,31.002 31.99,31C32.176,30.998 32.361,30.945 32.523,30.841Z" style="fill:rgb(255,205,0);fill-rule:nonzero;"/>
        <path d="M31.769,7.184L34.414,8.821L35.467,7.12L32.284,5.15C31.956,4.947 31.54,4.951 31.216,5.16L28.067,7.19L29.151,8.871L31.769,7.184Z" style="fill:rgb(255,205,0);fill-rule:nonzero;"/>
        <path d="M4.558,33.102L8.81,35.732L9.863,34.031L6.957,32.234L9.829,30.383L8.745,28.702L4.543,31.41C4.255,31.596 4.082,31.917 4.085,32.26C4.088,32.603 4.267,32.921 4.558,33.102Z" style="fill-rule:nonzero;"/>
        <g transform="matrix(0.5261,-0.8504,0.8504,0.5261,-25.9471,39.9876)">
            <rect x="21.907" y="39.077" width="2.001" height="8.398"/>
        </g>
        <path d="M28.432,45.518L27.38,47.22L31.632,49.85C31.796,49.952 31.982,50.001 32.168,49.999C32.354,49.997 32.539,49.944 32.701,49.84L36.903,47.131L35.819,45.45L32.148,47.817L28.432,45.518Z" style="fill-rule:nonzero;"/>
        <g transform="matrix(0.8405,-0.5418,0.5418,0.8405,-16.7674,29.2544)">
            <rect x="37.103" y="42.104" width="8.398" height="2.001"/>
        </g>
        <path d="M59.442,30.898L55.19,28.268L54.137,29.969L57.043,31.766L54.171,33.617L55.255,35.298L59.457,32.589C59.745,32.403 59.918,32.082 59.915,31.739C59.913,31.397 59.734,31.079 59.442,30.898Z" style="fill-rule:nonzero;"/>
        <path d="M16.244,40.33L17.381,41.033L18.434,39.332L11.292,34.914L10.239,36.615L14.36,39.164" style="fill-rule:nonzero;"/>
        <path d="M47.911,40.035L57.175,45.766L32.28,61.816L7.088,46.233L16.244,40.33L14.36,39.164L4.673,45.41C4.385,45.596 4.212,45.917 4.215,46.26C4.218,46.603 4.397,46.92 4.689,47.101L31.763,63.849C31.927,63.951 32.113,64 32.299,63.998C32.485,63.996 32.67,63.943 32.832,63.839L59.589,46.589C59.877,46.403 60.05,46.082 60.047,45.739C60.044,45.396 59.864,45.079 59.573,44.898L49.772,38.835" style="fill:rgb(255,205,0);fill-rule:nonzero;"/>
        <path d="M49.772,38.835L53.845,36.21L52.761,34.529L45.702,39.079L46.786,40.76L47.911,40.035" style="fill-rule:nonzero;"/>
    </g>
</svg>
