<?xml version="1.0" encoding="UTF-8" standalone="no"?>
<!DOCTYPE svg PUBLIC "-//W3C//DTD SVG 1.1//EN" "http://www.w3.org/Graphics/SVG/1.1/DTD/svg11.dtd">
<svg width="100%" height="100%" viewBox="0 0 2263 2075" version="1.1" xmlns="http://www.w3.org/2000/svg" xmlns:xlink="http://www.w3.org/1999/xlink" xml:space="preserve" xmlns:serif="http://www.serif.com/" style="fill-rule:evenodd;clip-rule:evenodd;stroke-linejoin:round;stroke-miterlimit:1.41421;">
    <g transform="matrix(4.16667,0,0,4.16667,0,0)">
        <path d="M408.646,385.866L401.131,385.866L400.48,376.683L392.743,376.683L390.359,376.827L390.359,412.831L396.36,413.192L396.36,420.133L374.669,420.133L374.669,413.192L380.596,412.831L380.596,376.827L378.286,376.683L370.695,376.683L370.042,385.866L362.525,385.866L362.525,369.525L408.646,369.525L408.646,385.866Z" style="fill:white;fill-rule:nonzero;"/>
        <path d="M432.494,409.42L440.281,409.086C440.281,418.202 438.15,420.731 425.241,420.731C412.001,420.731 409.473,417.738 409.473,402.301C409.473,386.931 412.001,383.936 425.11,383.936C438.418,383.936 440.348,386.663 440.348,402.832C440.348,404.432 439.947,404.829 438.418,404.829L417.725,404.829C417.925,413.414 419.12,414.543 425.241,414.543C431.499,414.543 432.494,413.477 432.494,409.42ZM417.725,399.573L432.427,399.573C432.227,391.189 430.831,390.06 425.11,390.06C419.187,390.06 417.925,391.189 417.725,399.573Z" style="fill:white;fill-rule:nonzero;"/>
        <path d="M475.504,396.047L467.587,396.444C467.587,391.857 466.455,390.457 460.4,390.457C453.813,390.457 452.881,391.923 452.881,402.301C452.881,412.746 453.813,414.145 460.4,414.145C466.521,414.145 467.587,413.014 467.587,408.422L475.504,408.088C475.504,418.27 473.44,420.731 460.4,420.731C447.158,420.731 444.63,417.738 444.63,402.301C444.63,386.931 447.158,383.936 460.4,383.936C473.24,383.936 475.504,386.4 475.504,396.047Z" style="fill:white;fill-rule:nonzero;"/>
        <path d="M520.328,420.133L501.695,420.133L501.695,414.145L506.754,413.811L506.754,396.979C506.754,392.454 505.422,391.121 500.9,391.121C498.039,391.121 495.976,391.79 492.048,393.719L492.048,413.811L497.108,414.145L497.108,420.133L478.411,420.133L478.411,414.145L483.467,413.811L483.467,376.553L478.411,376.285L478.411,370.232L492.048,370.232L492.048,389.128C495.378,386.132 499.502,383.936 505.225,383.936C512.677,383.936 515.339,386.333 515.339,394.781L515.339,413.811L520.328,414.145L520.328,420.133Z" style="fill:white;fill-rule:nonzero;"/>
        <path d="M94.491,420.133L73.625,420.133L73.625,413.178L78.986,412.813L78.986,378.181L65.799,420.133L56.019,420.133L42.614,378.616L42.614,412.813L48.12,413.178L48.12,420.133L27.325,420.133L27.325,413.178L33.266,412.813L33.266,376.732L27.543,376.37L27.543,369.412L49.716,369.412L59.858,402.525C60.438,404.41 60.874,406.365 61.307,408.25C61.816,406.365 62.249,404.41 62.829,402.525L72.828,369.412L94.42,369.412L94.42,376.37L88.552,376.732L88.552,412.813L94.491,413.178L94.491,420.133Z" style="fill:white;fill-rule:nonzero;"/>
        <path d="M118.123,420.133L99.494,420.133L99.494,414.145L104.62,413.811L104.62,390.858L99.494,390.591L99.494,384.536L113.135,384.536L113.135,413.811L118.123,414.145L118.123,420.133Z" style="fill:white;fill-rule:nonzero;"/>
        <path d="M152.608,396.047L144.69,396.444C144.69,391.857 143.559,390.457 137.505,390.457C130.92,390.457 129.988,391.923 129.988,402.301C129.988,412.746 130.92,414.145 137.505,414.145C143.625,414.145 144.69,413.014 144.69,408.422L152.608,408.088C152.608,418.27 150.547,420.731 137.505,420.731C124.265,420.731 121.737,417.738 121.737,402.301C121.737,386.931 124.265,383.936 137.505,383.936C150.347,383.936 152.608,386.4 152.608,396.047Z" style="fill:white;fill-rule:nonzero;"/>
        <path d="M199.341,420.133L180.41,420.133L180.41,414.047L185.546,413.709L185.546,396.599C185.546,392 184.196,390.647 179.597,390.647C176.69,390.647 174.591,391.325 170.601,393.283L170.601,413.709L175.74,414.047L175.74,420.133L156.739,420.133L156.739,414.047L161.878,413.709L161.878,375.839L156.739,375.568L156.739,369.412L170.601,369.412L170.601,388.618C173.983,385.573 178.177,383.345 183.992,383.345C191.564,383.345 194.271,385.777 194.271,394.366L194.271,413.709L199.341,414.047L199.341,420.133Z" style="fill:white;fill-rule:nonzero;"/>
        <path d="M222.404,420.133L203.774,420.133L203.774,414.145L208.896,413.811L208.896,390.858L203.774,390.591L203.774,384.536L217.411,384.536L217.411,413.811L222.404,414.145L222.404,420.133Z" style="fill:white;fill-rule:nonzero;"/>
        <path d="M259.096,390.858L259.096,419.134C259.096,430.979 256.301,433.64 242.661,433.64C230.085,433.64 227.758,431.178 227.758,422.526L235.474,422.196C235.474,426.253 236.606,427.519 242.53,427.519C249.45,427.519 250.514,425.455 250.514,419.134L250.514,413.878C246.855,418.136 244.26,419.066 239,419.066C229.755,419.066 226.429,416.139 226.429,401.503C226.429,386.931 229.755,383.936 239.068,383.936C244.457,383.936 247.251,384.867 250.514,388.527L250.514,384.47L259.096,384.47L259.096,384.536L264.152,384.536L264.152,390.524L259.096,390.858ZM250.514,409.951L250.514,392.855C247.983,391.389 246.187,390.991 241.996,390.991C235.942,390.991 234.543,392.388 234.543,401.503C234.543,410.749 235.942,412.015 242.063,412.015C246.053,412.015 247.983,411.551 250.514,409.951Z" style="fill:white;fill-rule:nonzero;"/>
        <path d="M304.385,420.133L291.346,420.133L290.947,414.943C286.887,419.066 283.294,420.731 278.238,420.731C270.452,420.731 267.193,416.339 267.193,410.419C267.193,404.165 269.72,399.506 285.225,399.506L290.747,399.506L290.747,397.442C290.747,391.923 289.683,390.126 283.495,390.126C277.771,390.126 276.706,391.456 276.706,395.115L268.789,395.512C268.789,386.797 271.383,383.936 283.825,383.936C296.468,383.936 299.329,386.731 299.329,397.312L299.329,413.811L304.385,414.078L304.385,420.133ZM280.833,414.342C284.757,414.342 287.352,413.08 290.747,409.755L290.747,404.364L286.285,404.364C276.772,404.364 275.377,406.691 275.377,409.888C275.377,412.281 276.839,414.342 280.833,414.342Z" style="fill:white;fill-rule:nonzero;"/>
        <path d="M351.079,420.133L332.449,420.133L332.449,414.145L337.506,413.811L337.506,396.979C337.506,392.454 336.173,391.121 331.648,391.121C328.79,391.121 326.727,391.79 322.8,393.719L322.8,413.811L327.858,414.145L327.858,420.133L309.162,420.133L309.162,414.145L314.218,413.811L314.218,390.858L309.162,390.524L309.162,384.536L322.8,384.536L322.8,389.128C326.129,386.132 330.252,383.936 335.976,383.936C343.43,383.936 346.091,386.333 346.091,394.781L346.091,413.811L351.079,414.145L351.079,420.133Z" style="fill:white;fill-rule:nonzero;"/>
        <path d="M103.421,374.475C103.421,370.618 104.085,369.95 108.677,369.95C113.068,369.95 113.732,370.618 113.732,374.475C113.732,378.402 113.068,379 108.677,379C104.085,379 103.421,378.402 103.421,374.475Z" style="fill:white;fill-rule:nonzero;"/>
        <path d="M207.698,374.475C207.698,370.618 208.362,369.95 212.954,369.95C217.345,369.95 218.009,370.618 218.009,374.475C218.009,378.402 217.345,379 212.954,379C208.362,379 207.698,378.402 207.698,374.475Z" style="fill:white;fill-rule:nonzero;"/>
        <path d="M292.906,5.337L248.806,6.237C244.906,24.237 241.006,42.237 237.106,60.237L195.706,78.237L149.806,45.837L118.306,78.237L145.306,122.337L127.306,168.237L77.806,179.937L77.806,221.337L127.306,233.037L145.306,281.637L118.306,322.137L149.806,353.637L191.206,328.437L210.106,333.837L242.506,254.637L214.606,230.337L210.106,191.637L223.606,162.837L248.806,143.937L273.106,140.337L301.006,148.437L319.006,163.737L327.106,179.937L332.506,207.837L323.506,232.137L310.006,249.237L301.006,256.437L332.506,336.537L347.806,327.537L369.406,337.437L390.106,353.637L422.506,322.137L396.406,278.037L410.806,242.037L418.006,232.137L465.706,222.237L465.706,179.937L414.406,167.337L396.406,123.237L422.506,79.137L390.106,45.837L347.806,77.337L303.706,60.237L292.906,5.337Z" style="fill:rgb(253,205,37);fill-rule:nonzero;"/>
        <path d="M459.483,219.896L418.319,227.557C415.201,228.175 413.176,229.479 411.428,230.984C409.846,232.436 408.44,234.121 407.448,236.746L392.641,273.721C391.698,275.914 391.498,277.76 391.48,279.451C391.544,282.119 391.979,284.689 393.98,287.733L417.313,321.736L391.157,347.89L357.847,325.026C354.933,323.098 352.323,322.629 349.792,322.591C347.655,322.615 345.464,322.967 343.015,324.281L343.011,324.281L334.365,328.901L305.344,258.772C306.041,258.266 306.684,257.749 307.334,257.197C325.341,245.36 337.277,224.888 337.277,201.692C337.27,164.985 307.531,135.243 270.831,135.236C234.131,135.243 204.389,164.985 204.376,201.692C204.382,224.888 216.314,245.356 234.329,257.193C234.972,257.742 235.612,258.259 236.315,258.768L207.297,328.901L198.652,324.281C196.167,322.949 193.938,322.612 191.859,322.591C189.297,322.633 186.709,323.105 183.794,325.038L150.505,347.89L124.342,321.736L147.679,287.723C149.662,284.682 150.112,282.129 150.175,279.451C150.151,277.718 149.929,275.868 149.019,273.734L134.189,236.676C133.191,234.067 131.778,232.408 130.216,230.973C128.462,229.472 126.456,228.175 123.306,227.553L82.171,219.9L82.169,182.912L124.532,175.022C127.605,174.407 129.573,173.163 131.314,171.714C132.868,170.333 134.274,168.744 135.325,166.215L135.329,166.219L150.252,131.401C151.258,129.199 151.54,127.246 151.56,125.336C151.501,122.731 151.071,120.182 149.12,117.169L124.353,81.079L150.509,54.922L187.282,80.164C190.355,82.169 192.875,82.586 195.548,82.647C197.292,82.632 199.137,82.407 201.282,81.486L235.098,67.649C237.718,66.615 239.367,65.188 240.78,63.62C242.25,61.877 243.504,59.903 244.13,56.842L252.336,12.749L289.319,12.749L297.515,56.799C298.158,59.918 299.413,61.883 300.883,63.623C302.307,65.202 303.955,66.633 306.596,67.666L340.42,81.511C342.539,82.414 344.343,82.636 346.101,82.657C348.748,82.59 351.297,82.175 354.362,80.179L391.153,54.926L417.306,81.085L392.57,117.13C390.58,120.101 390.145,122.72 390.085,125.343C390.103,127.203 390.377,129.105 391.315,131.211L406.319,166.223L406.323,166.223C407.378,168.754 408.788,170.343 410.342,171.721C412.079,173.166 414.03,174.407 417.109,175.029L459.483,182.912L459.483,219.896ZM468.044,172.4L419.082,163.298C417.894,163.073 416.586,161.951 416.185,160.802L401.177,125.789C400.618,124.71 400.724,123.012 401.415,122.003L429.942,80.428C430.623,79.426 430.49,77.903 429.629,77.042L394.001,41.415C393.14,40.554 391.621,40.413 390.619,41.103L348.312,70.134C347.311,70.823 345.595,70.943 344.509,70.408L310.568,56.515C309.416,56.132 308.291,54.845 308.065,53.649L298.64,3.007C298.419,1.815 297.24,0.837 296.028,0.837L245.631,0.837C244.422,0.837 243.244,1.815 243.023,3.007L233.601,53.649C233.372,54.845 232.254,56.132 231.098,56.515L197.154,70.408C196.064,70.943 194.349,70.823 193.351,70.134L151.047,41.103C150.042,40.413 148.519,40.554 147.662,41.415L112.03,77.042C111.173,77.903 111.029,79.426 111.718,80.428L140.247,122.003C140.932,123.012 141.038,124.71 140.482,125.789L125.471,160.802C125.073,161.951 123.769,163.073 122.574,163.298L73.615,172.4C72.417,172.628 71.442,173.802 71.442,175.016L71.445,225.409C71.445,226.621 72.423,227.806 73.619,228.02L121.375,236.908C122.57,237.126 123.847,238.261 124.212,239.421L139.122,276.663C139.653,277.756 139.53,279.468 138.837,280.467L111.711,319.999C111.025,321.002 111.166,322.524 112.023,323.385L147.662,359.017C148.519,359.87 150.042,360.011 151.043,359.329L189.873,332.673C190.876,331.992 192.553,331.936 193.597,332.547L210.725,341.691C211.807,342.243 213.073,341.775 213.537,340.654L248.848,255.334C249.315,254.212 248.848,252.777 247.814,252.145L243.529,249.519C242.735,249.037 241.658,248.208 240.819,247.444C225.356,237.544 215.099,220.223 215.099,200.5C215.099,169.725 240.052,144.774 270.828,144.774C301.604,144.774 326.551,169.725 326.551,200.5C326.551,220.223 316.299,237.544 300.833,247.444C299.997,248.208 298.918,249.037 298.131,249.519L293.845,252.145C292.814,252.777 292.344,254.212 292.807,255.334L328.115,340.658C328.579,341.779 329.845,342.243 330.931,341.694L348.056,332.551C349.103,331.939 350.777,331.992 351.778,332.677L390.612,359.333C391.614,360.015 393.14,359.874 393.994,359.02L429.629,323.389C430.49,322.527 430.631,321.002 429.942,320.003L402.812,280.471C402.126,279.468 402,277.76 402.533,276.666L417.443,239.421C417.809,238.265 419.078,237.129 420.273,236.912L468.033,228.024C469.226,227.806 470.202,226.625 470.202,225.409L470.21,175.02C470.213,173.802 469.236,172.628 468.044,172.4Z" style="fill:white;fill-rule:nonzero;"/>
        <path d="M37.536,450.145C36.624,447.985 35.328,446.113 33.696,444.577C32.016,443.041 30.048,441.841 27.792,441.025C25.536,440.209 23.04,439.777 20.4,439.777C17.76,439.777 15.312,440.209 13.056,441.025C10.8,441.841 8.832,443.041 7.2,444.577C5.52,446.113 4.224,447.985 3.312,450.145C2.4,452.353 1.92,454.801 1.92,457.537C1.92,460.225 2.4,462.673 3.312,464.881C4.224,467.137 5.52,469.009 7.2,470.593C8.832,472.177 10.8,473.425 13.056,474.289C15.312,475.153 17.76,475.585 20.4,475.585C23.04,475.585 25.536,475.153 27.792,474.289C30.048,473.425 32.016,472.177 33.696,470.593C35.328,469.009 36.624,467.137 37.536,464.881C38.448,462.673 38.928,460.225 38.928,457.537C38.928,454.801 38.448,452.353 37.536,450.145ZM29.424,461.761C28.944,463.057 28.272,464.209 27.408,465.121C26.544,466.033 25.536,466.753 24.336,467.281C23.136,467.809 21.84,468.097 20.4,468.097C18.96,468.097 17.664,467.809 16.464,467.281C15.264,466.753 14.256,466.033 13.44,465.121C12.576,464.209 11.904,463.057 11.424,461.761C10.944,460.465 10.704,459.073 10.704,457.537C10.704,456.049 10.944,454.705 11.424,453.409C11.856,452.113 12.528,451.009 13.392,450.097C14.256,449.185 15.264,448.465 16.464,447.937C17.664,447.409 18.96,447.169 20.4,447.169C21.84,447.169 23.184,447.409 24.384,447.937C25.584,448.465 26.592,449.185 27.456,450.097C28.272,451.009 28.944,452.113 29.424,453.409C29.904,454.705 30.144,456.049 30.144,457.537C30.144,459.073 29.904,460.465 29.424,461.761Z" style="fill:rgb(253,204,37);fill-rule:nonzero;"/>
        <path d="M69.743,457.826C69.215,456.338 68.447,454.994 67.487,453.842C66.479,452.69 65.279,451.778 63.887,451.106C62.495,450.434 60.911,450.098 59.183,450.098C57.407,450.098 55.919,450.434 54.623,451.154C53.327,451.874 52.271,452.738 51.551,453.698L51.407,453.698L51.407,450.77L43.919,450.77L43.919,486.194L51.791,486.194L51.791,472.034L51.887,472.034C52.607,473.042 53.663,473.858 54.959,474.434C56.255,475.058 57.647,475.346 59.135,475.346C60.911,475.346 62.543,475.01 63.935,474.29C65.327,473.57 66.527,472.658 67.535,471.458C68.495,470.306 69.215,468.962 69.743,467.426C70.271,465.89 70.511,464.306 70.511,462.626C70.511,460.946 70.271,459.362 69.743,457.826ZM62.543,464.882C62.303,465.65 61.919,466.322 61.487,466.898C61.007,467.474 60.431,467.954 59.711,468.29C58.991,468.626 58.175,468.818 57.263,468.818C56.351,468.818 55.583,468.626 54.863,468.29C54.143,467.954 53.567,467.474 53.087,466.898C52.559,466.322 52.175,465.65 51.935,464.93C51.647,464.21 51.503,463.442 51.503,462.674C51.503,461.906 51.647,461.138 51.935,460.418C52.175,459.698 52.559,459.026 53.087,458.45C53.567,457.874 54.143,457.394 54.863,457.058C55.583,456.722 56.351,456.53 57.263,456.53C58.175,456.53 58.991,456.722 59.711,457.058C60.431,457.394 61.007,457.874 61.487,458.402C61.919,458.978 62.303,459.65 62.543,460.37C62.783,461.09 62.879,461.858 62.879,462.626C62.879,463.394 62.783,464.162 62.543,464.882Z" style="fill:rgb(253,204,37);fill-rule:nonzero;"/>
        <path d="M81.791,459.986C81.839,459.362 81.983,458.786 82.271,458.21C82.559,457.682 82.943,457.202 83.423,456.77C83.903,456.338 84.479,456.002 85.103,455.762C85.727,455.522 86.447,455.426 87.215,455.426C88.799,455.426 89.951,455.858 90.767,456.77C91.535,457.682 91.919,458.738 91.919,459.986L81.791,459.986ZM98.303,457.538C97.679,455.954 96.863,454.562 95.807,453.458C94.751,452.354 93.503,451.49 92.015,450.866C90.527,450.29 88.943,450.002 87.167,450.002C85.343,450.002 83.663,450.29 82.079,450.914C80.495,451.538 79.151,452.354 77.999,453.458C76.847,454.562 75.935,455.906 75.263,457.49C74.591,459.074 74.255,460.85 74.255,462.818C74.255,464.834 74.591,466.61 75.311,468.194C75.983,469.778 76.943,471.074 78.143,472.13C79.343,473.234 80.735,474.05 82.319,474.578C83.903,475.154 85.631,475.442 87.407,475.442C89.855,475.442 91.967,475.01 93.839,474.098C95.663,473.234 97.151,471.986 98.255,470.354L92.783,466.898C92.255,467.618 91.535,468.242 90.671,468.674C89.807,469.154 88.751,469.394 87.503,469.394C86.783,469.394 86.111,469.298 85.487,469.058C84.815,468.818 84.239,468.53 83.711,468.098C83.183,467.714 82.751,467.234 82.415,466.706C82.079,466.178 81.839,465.554 81.791,464.882L99.119,464.882C99.167,464.594 99.167,464.306 99.167,463.97C99.167,463.634 99.167,463.346 99.167,463.01C99.167,460.946 98.879,459.122 98.303,457.538Z" style="fill:rgb(253,204,37);fill-rule:nonzero;"/>
        <path d="M127.679,474.674L127.679,459.89C127.679,458.69 127.535,457.538 127.247,456.338C126.911,455.138 126.431,454.082 125.759,453.17C125.039,452.258 124.127,451.538 123.023,450.962C121.919,450.386 120.527,450.098 118.943,450.098C118.127,450.098 117.311,450.194 116.591,450.434C115.871,450.674 115.199,450.962 114.575,451.298C113.951,451.634 113.375,452.066 112.943,452.546C112.463,453.074 112.079,453.554 111.791,454.082L111.695,454.082L111.695,450.77L104.063,450.77L104.063,474.674L111.983,474.674L111.983,461.714C111.983,461.042 112.079,460.37 112.271,459.746C112.415,459.122 112.703,458.594 113.039,458.114C113.375,457.634 113.855,457.25 114.383,456.962C114.911,456.722 115.487,456.578 116.207,456.578C116.927,456.578 117.503,456.722 117.983,456.962C118.415,457.25 118.799,457.634 119.039,458.066C119.279,458.546 119.471,459.074 119.615,459.698C119.711,460.322 119.759,460.946 119.759,461.618L119.759,474.674L127.679,474.674Z" style="fill:rgb(253,204,37);fill-rule:nonzero;"/>
        <path d="M169.247,444.002C167.759,442.61 165.983,441.602 164.015,440.882C161.999,440.162 160.031,439.826 158.111,439.826C156.527,439.826 154.943,440.018 153.359,440.402C151.775,440.834 150.383,441.458 149.135,442.322C147.887,443.186 146.879,444.29 146.111,445.634C145.343,446.978 144.959,448.61 144.959,450.482C144.959,452.018 145.199,453.314 145.727,454.37C146.207,455.474 146.879,456.386 147.695,457.106C148.511,457.874 149.423,458.498 150.479,458.978C151.487,459.458 152.543,459.89 153.647,460.226C154.751,460.562 155.759,460.898 156.671,461.186C157.535,461.522 158.255,461.858 158.879,462.194C159.455,462.578 159.887,463.01 160.223,463.442C160.559,463.874 160.703,464.45 160.703,465.074C160.703,465.746 160.559,466.322 160.319,466.802C160.079,467.282 159.743,467.666 159.311,467.954C158.879,468.242 158.351,468.434 157.775,468.578C157.199,468.722 156.623,468.77 155.999,468.77C154.655,468.77 153.311,468.434 151.967,467.714C150.575,467.042 149.471,466.178 148.655,465.17L143.279,470.642C144.767,472.226 146.687,473.426 148.943,474.242C151.199,475.106 153.551,475.538 155.999,475.538C157.679,475.538 159.263,475.298 160.847,474.866C162.431,474.434 163.823,473.714 165.023,472.802C166.223,471.89 167.231,470.69 167.951,469.25C168.671,467.858 169.007,466.178 169.007,464.21C169.007,462.53 168.671,461.09 167.999,459.938C167.327,458.834 166.463,457.874 165.455,457.106C164.447,456.338 163.295,455.714 162.047,455.234C160.799,454.802 159.599,454.37 158.447,453.986C157.631,453.746 156.911,453.458 156.287,453.218C155.663,452.978 155.087,452.738 154.655,452.45C154.175,452.162 153.839,451.826 153.599,451.442C153.359,451.058 153.215,450.578 153.215,450.002C153.215,449.33 153.359,448.754 153.695,448.322C153.983,447.89 154.367,447.554 154.799,447.266C155.231,447.026 155.759,446.834 156.335,446.738C156.863,446.642 157.439,446.594 157.967,446.594C159.023,446.594 160.127,446.834 161.279,447.362C162.383,447.89 163.295,448.61 164.015,449.522L169.247,444.002Z" style="fill:rgb(253,204,37);fill-rule:nonzero;"/>
        <path d="M198.286,457.346C197.566,455.762 196.606,454.466 195.406,453.362C194.206,452.258 192.766,451.442 191.182,450.866C189.598,450.29 187.87,450.002 186.046,450.002C184.27,450.002 182.542,450.29 180.958,450.866C179.326,451.442 177.934,452.258 176.734,453.362C175.534,454.466 174.574,455.762 173.854,457.346C173.134,458.93 172.798,460.658 172.798,462.626C172.798,464.594 173.134,466.322 173.854,467.906C174.574,469.49 175.534,470.834 176.734,471.938C177.934,473.042 179.326,473.906 180.958,474.53C182.542,475.154 184.27,475.442 186.046,475.442C187.87,475.442 189.598,475.154 191.182,474.53C192.766,473.906 194.206,473.042 195.406,471.938C196.606,470.834 197.566,469.49 198.286,467.906C199.006,466.322 199.342,464.594 199.342,462.626C199.342,460.658 199.006,458.93 198.286,457.346ZM191.422,464.882C191.182,465.602 190.798,466.274 190.318,466.85C189.838,467.474 189.262,467.954 188.542,468.29C187.822,468.626 187.006,468.818 186.094,468.818C185.182,468.818 184.366,468.626 183.646,468.29C182.926,467.954 182.35,467.474 181.87,466.85C181.39,466.274 181.054,465.602 180.814,464.882C180.574,464.162 180.43,463.394 180.43,462.626C180.43,461.858 180.574,461.09 180.814,460.37C181.054,459.65 181.39,458.978 181.87,458.402C182.302,457.874 182.878,457.394 183.598,457.058C184.318,456.722 185.134,456.53 186.046,456.53C186.958,456.53 187.774,456.722 188.494,457.058C189.214,457.394 189.79,457.874 190.27,458.402C190.75,458.978 191.134,459.65 191.374,460.37C191.614,461.09 191.758,461.858 191.758,462.626C191.758,463.394 191.662,464.162 191.422,464.882Z" style="fill:rgb(253,204,37);fill-rule:nonzero;"/>
        <path d="M227.662,474.674L227.662,450.77L219.79,450.77L219.79,463.682C219.79,465.074 219.454,466.274 218.734,467.282C218.014,468.29 216.958,468.818 215.566,468.818C214.846,468.818 214.222,468.674 213.79,468.386C213.358,468.146 212.974,467.762 212.734,467.282C212.446,466.802 212.254,466.274 212.158,465.65C212.062,465.026 212.014,464.402 212.014,463.73L212.014,450.77L204.094,450.77L204.094,465.554C204.094,466.754 204.238,467.954 204.574,469.106C204.862,470.306 205.342,471.314 206.062,472.226C206.734,473.138 207.646,473.906 208.75,474.482C209.854,475.058 211.198,475.346 212.782,475.346C213.598,475.346 214.414,475.25 215.182,475.01C215.902,474.77 216.622,474.482 217.246,474.146C217.87,473.81 218.398,473.378 218.878,472.898C219.31,472.418 219.694,471.89 219.982,471.362L220.078,471.362L220.078,474.674L227.662,474.674Z" style="fill:rgb(253,204,37);fill-rule:nonzero;"/>
        <path d="M249.646,450.29C249.454,450.242 249.214,450.194 248.926,450.146C248.59,450.098 248.302,450.098 247.966,450.098C246.478,450.098 245.182,450.482 244.078,451.25C242.974,452.018 242.11,453.026 241.486,454.274L241.39,454.274L241.39,450.818L233.806,450.818L233.806,474.674L241.678,474.674L241.678,462.434C241.678,461.954 241.774,461.378 241.966,460.754C242.158,460.082 242.494,459.506 242.926,458.978C243.358,458.45 243.934,457.97 244.654,457.586C245.374,457.202 246.238,457.01 247.294,457.01C247.63,457.01 247.966,457.01 248.302,457.058C248.638,457.106 248.974,457.154 249.31,457.25L249.646,450.29Z" style="fill:rgb(253,204,37);fill-rule:nonzero;"/>
        <path d="M273.022,453.218C272.542,452.738 271.966,452.306 271.342,451.874C270.67,451.49 269.95,451.154 269.182,450.866C268.366,450.626 267.55,450.386 266.734,450.242C265.87,450.098 265.006,450.002 264.142,450.002C262.27,450.002 260.542,450.29 258.91,450.866C257.278,451.49 255.838,452.306 254.638,453.41C253.438,454.514 252.478,455.858 251.806,457.442C251.086,459.026 250.75,460.754 250.75,462.722C250.75,464.69 251.086,466.466 251.806,468.05C252.478,469.634 253.438,470.93 254.638,472.034C255.838,473.138 257.278,474.002 258.91,474.578C260.542,475.154 262.318,475.442 264.19,475.442C265.966,475.442 267.598,475.154 269.182,474.626C270.766,474.098 272.014,473.33 273.022,472.37L268.654,467.042C268.174,467.618 267.55,468.05 266.782,468.338C265.966,468.674 265.198,468.818 264.382,468.818C263.518,468.818 262.75,468.674 262.078,468.338C261.358,468.002 260.782,467.57 260.302,466.994C259.774,466.466 259.39,465.794 259.15,465.074C258.91,464.354 258.766,463.538 258.766,462.722C258.766,461.906 258.91,461.09 259.198,460.37C259.438,459.65 259.822,458.978 260.302,458.402C260.782,457.874 261.358,457.394 262.03,457.058C262.702,456.722 263.47,456.578 264.286,456.578C265.102,456.578 265.87,456.77 266.638,457.106C267.406,457.442 268.03,457.922 268.462,458.498L273.022,453.218Z" style="fill:rgb(253,204,37);fill-rule:nonzero;"/>
        <path d="M282.43,459.986C282.478,459.362 282.622,458.786 282.91,458.21C283.198,457.682 283.582,457.202 284.062,456.77C284.542,456.338 285.118,456.002 285.742,455.762C286.366,455.522 287.086,455.426 287.854,455.426C289.438,455.426 290.59,455.858 291.406,456.77C292.174,457.682 292.558,458.738 292.558,459.986L282.43,459.986ZM298.942,457.538C298.318,455.954 297.502,454.562 296.446,453.458C295.39,452.354 294.142,451.49 292.654,450.866C291.166,450.29 289.582,450.002 287.806,450.002C285.982,450.002 284.302,450.29 282.718,450.914C281.134,451.538 279.79,452.354 278.638,453.458C277.486,454.562 276.574,455.906 275.902,457.49C275.23,459.074 274.894,460.85 274.894,462.818C274.894,464.834 275.23,466.61 275.95,468.194C276.622,469.778 277.582,471.074 278.782,472.13C279.982,473.234 281.374,474.05 282.958,474.578C284.542,475.154 286.27,475.442 288.046,475.442C290.494,475.442 292.606,475.01 294.478,474.098C296.302,473.234 297.79,471.986 298.894,470.354L293.422,466.898C292.894,467.618 292.174,468.242 291.31,468.674C290.446,469.154 289.39,469.394 288.142,469.394C287.422,469.394 286.75,469.298 286.126,469.058C285.454,468.818 284.878,468.53 284.35,468.098C283.822,467.714 283.39,467.234 283.054,466.706C282.718,466.178 282.478,465.554 282.43,464.882L299.758,464.882C299.806,464.594 299.806,464.306 299.806,463.97C299.806,463.634 299.806,463.346 299.806,463.01C299.806,460.946 299.518,459.122 298.942,457.538Z" style="fill:rgb(253,204,37);fill-rule:nonzero;"/>
        <path d="M346.797,474.674L346.797,440.69L338.589,440.69L338.589,453.554L325.341,453.554L325.341,440.69L317.133,440.69L317.133,474.674L325.341,474.674L325.341,460.466L338.589,460.466L338.589,474.674L346.797,474.674Z" style="fill:rgb(253,204,37);fill-rule:nonzero;"/>
        <path d="M367.485,465.074C367.485,466.562 367.053,467.762 366.237,468.626C365.373,469.538 364.125,469.97 362.541,469.97C362.157,469.97 361.773,469.922 361.341,469.826C360.909,469.778 360.573,469.634 360.237,469.442C359.901,469.25 359.661,469.01 359.469,468.674C359.229,468.338 359.133,467.954 359.133,467.522C359.133,466.802 359.373,466.226 359.805,465.794C360.237,465.362 360.813,465.074 361.533,464.834C362.205,464.594 362.973,464.45 363.885,464.354C364.749,464.306 365.613,464.258 366.477,464.258L367.485,464.258L367.485,465.074ZM357.021,458.306C357.741,457.634 358.653,457.058 359.709,456.578C360.717,456.098 361.821,455.858 362.925,455.858C364.125,455.858 365.181,456.146 365.997,456.674C366.813,457.25 367.245,458.114 367.245,459.314L367.245,459.698C365.517,459.698 363.741,459.794 361.917,459.986C360.093,460.178 358.461,460.562 356.973,461.138C355.485,461.714 354.237,462.53 353.325,463.586C352.365,464.642 351.885,466.034 351.885,467.762C351.885,469.154 352.173,470.354 352.701,471.314C353.229,472.274 353.949,473.042 354.813,473.618C355.629,474.194 356.589,474.626 357.597,474.866C358.605,475.106 359.613,475.25 360.573,475.25C362.013,475.25 363.357,474.962 364.605,474.434C365.805,473.906 366.717,473.138 367.341,472.13L367.485,472.13L367.485,474.674L374.685,474.674L374.685,462.626C374.685,460.466 374.493,458.546 374.109,456.962C373.677,455.378 373.053,454.082 372.189,453.026C371.325,452.018 370.221,451.25 368.829,450.722C367.437,450.242 365.709,450.002 363.693,450.002C361.725,450.002 359.853,450.338 357.981,451.01C356.109,451.682 354.429,452.69 353.037,454.034L357.021,458.306Z" style="fill:rgb(253,204,37);fill-rule:nonzero;"/>
        <path d="M396.381,450.29C396.189,450.242 395.949,450.194 395.661,450.146C395.325,450.098 395.037,450.098 394.701,450.098C393.213,450.098 391.917,450.482 390.813,451.25C389.709,452.018 388.845,453.026 388.221,454.274L388.125,454.274L388.125,450.818L380.541,450.818L380.541,474.674L388.413,474.674L388.413,462.434C388.413,461.954 388.509,461.378 388.701,460.754C388.893,460.082 389.229,459.506 389.661,458.978C390.093,458.45 390.669,457.97 391.389,457.586C392.109,457.202 392.973,457.01 394.029,457.01C394.365,457.01 394.701,457.01 395.037,457.058C395.373,457.106 395.709,457.154 396.045,457.25L396.381,450.29Z" style="fill:rgb(253,204,37);fill-rule:nonzero;"/>
        <path d="M424.029,474.674L424.029,438.386L416.157,438.386L416.157,453.314L416.061,453.314C415.389,452.498 414.429,451.778 413.229,451.106C412.029,450.434 410.541,450.098 408.765,450.098C407.037,450.098 405.501,450.434 404.109,451.106C402.717,451.778 401.517,452.69 400.557,453.842C399.549,454.994 398.829,456.338 398.301,457.826C397.773,459.362 397.485,460.946 397.485,462.626C397.485,464.306 397.725,465.89 398.253,467.426C398.781,468.962 399.501,470.306 400.509,471.458C401.469,472.658 402.669,473.57 404.061,474.29C405.453,475.01 407.085,475.346 408.861,475.346C410.445,475.346 411.981,475.01 413.421,474.338C414.813,473.714 415.917,472.754 416.685,471.554L416.781,471.554L416.781,474.674L424.029,474.674ZM416.109,464.93C415.821,465.65 415.437,466.322 414.957,466.898C414.429,467.474 413.853,467.954 413.133,468.29C412.413,468.626 411.645,468.818 410.733,468.818C409.821,468.818 409.005,468.626 408.285,468.29C407.565,467.954 406.989,467.474 406.509,466.898C406.029,466.322 405.693,465.65 405.453,464.882C405.213,464.162 405.069,463.394 405.069,462.626C405.069,461.858 405.213,461.09 405.453,460.37C405.693,459.65 406.029,458.978 406.509,458.402C406.989,457.874 407.565,457.394 408.285,457.058C409.005,456.722 409.821,456.53 410.733,456.53C411.645,456.53 412.413,456.722 413.133,457.058C413.853,457.394 414.429,457.874 414.957,458.45C415.437,459.026 415.821,459.698 416.109,460.418C416.349,461.138 416.493,461.906 416.493,462.674C416.493,463.442 416.349,464.21 416.109,464.93Z" style="fill:rgb(253,204,37);fill-rule:nonzero;"/>
        <path d="M469.005,450.77L460.845,450.77L456.669,465.89L456.573,465.89L452.157,450.77L444.237,450.77L439.965,465.89L439.821,465.89L435.693,450.77L427.197,450.77L435.453,474.674L443.373,474.674L447.981,459.794L448.077,459.794L452.781,474.674L460.701,474.674L469.005,450.77Z" style="fill:rgb(253,204,37);fill-rule:nonzero;"/>
        <path d="M486.188,465.074C486.188,466.562 485.756,467.762 484.94,468.626C484.076,469.538 482.828,469.97 481.244,469.97C480.86,469.97 480.476,469.922 480.044,469.826C479.612,469.778 479.276,469.634 478.94,469.442C478.604,469.25 478.364,469.01 478.172,468.674C477.932,468.338 477.836,467.954 477.836,467.522C477.836,466.802 478.076,466.226 478.508,465.794C478.94,465.362 479.516,465.074 480.236,464.834C480.908,464.594 481.676,464.45 482.588,464.354C483.452,464.306 484.316,464.258 485.18,464.258L486.188,464.258L486.188,465.074ZM475.724,458.306C476.444,457.634 477.356,457.058 478.412,456.578C479.42,456.098 480.524,455.858 481.628,455.858C482.828,455.858 483.884,456.146 484.7,456.674C485.516,457.25 485.948,458.114 485.948,459.314L485.948,459.698C484.22,459.698 482.444,459.794 480.62,459.986C478.796,460.178 477.164,460.562 475.676,461.138C474.188,461.714 472.94,462.53 472.028,463.586C471.068,464.642 470.588,466.034 470.588,467.762C470.588,469.154 470.876,470.354 471.404,471.314C471.932,472.274 472.652,473.042 473.516,473.618C474.332,474.194 475.292,474.626 476.3,474.866C477.308,475.106 478.316,475.25 479.276,475.25C480.716,475.25 482.06,474.962 483.308,474.434C484.508,473.906 485.42,473.138 486.044,472.13L486.188,472.13L486.188,474.674L493.388,474.674L493.388,462.626C493.388,460.466 493.196,458.546 492.812,456.962C492.38,455.378 491.756,454.082 490.892,453.026C490.028,452.018 488.924,451.25 487.532,450.722C486.14,450.242 484.412,450.002 482.396,450.002C480.428,450.002 478.556,450.338 476.684,451.01C474.812,451.682 473.132,452.69 471.74,454.034L475.724,458.306Z" style="fill:rgb(253,204,37);fill-rule:nonzero;"/>
        <path d="M515.084,450.29C514.892,450.242 514.652,450.194 514.364,450.146C514.028,450.098 513.74,450.098 513.404,450.098C511.916,450.098 510.62,450.482 509.516,451.25C508.412,452.018 507.548,453.026 506.924,454.274L506.828,454.274L506.828,450.818L499.244,450.818L499.244,474.674L507.116,474.674L507.116,462.434C507.116,461.954 507.212,461.378 507.404,460.754C507.596,460.082 507.932,459.506 508.364,458.978C508.796,458.45 509.372,457.97 510.092,457.586C510.812,457.202 511.676,457.01 512.732,457.01C513.068,457.01 513.404,457.01 513.74,457.058C514.076,457.106 514.412,457.154 514.748,457.25L515.084,450.29Z" style="fill:rgb(253,204,37);fill-rule:nonzero;"/>
        <path d="M523.724,459.986C523.772,459.362 523.916,458.786 524.204,458.21C524.492,457.682 524.876,457.202 525.356,456.77C525.836,456.338 526.412,456.002 527.036,455.762C527.66,455.522 528.38,455.426 529.148,455.426C530.732,455.426 531.884,455.858 532.7,456.77C533.468,457.682 533.852,458.738 533.852,459.986L523.724,459.986ZM540.236,457.538C539.612,455.954 538.796,454.562 537.74,453.458C536.684,452.354 535.436,451.49 533.948,450.866C532.46,450.29 530.876,450.002 529.1,450.002C527.276,450.002 525.596,450.29 524.012,450.914C522.428,451.538 521.084,452.354 519.932,453.458C518.78,454.562 517.868,455.906 517.196,457.49C516.524,459.074 516.188,460.85 516.188,462.818C516.188,464.834 516.524,466.61 517.244,468.194C517.916,469.778 518.876,471.074 520.076,472.13C521.276,473.234 522.668,474.05 524.252,474.578C525.836,475.154 527.564,475.442 529.34,475.442C531.788,475.442 533.9,475.01 535.772,474.098C537.596,473.234 539.084,471.986 540.188,470.354L534.716,466.898C534.188,467.618 533.468,468.242 532.604,468.674C531.74,469.154 530.684,469.394 529.436,469.394C528.716,469.394 528.044,469.298 527.42,469.058C526.748,468.818 526.172,468.53 525.644,468.098C525.116,467.714 524.684,467.234 524.348,466.706C524.012,466.178 523.772,465.554 523.724,464.882L541.052,464.882C541.1,464.594 541.1,464.306 541.1,463.97C541.1,463.634 541.1,463.346 541.1,463.01C541.1,460.946 540.812,459.122 540.236,457.538Z" style="fill:rgb(253,204,37);fill-rule:nonzero;"/>
    </g>
</svg>
