<?xml version="1.0" encoding="UTF-8" standalone="no"?>
<!DOCTYPE svg PUBLIC "-//W3C//DTD SVG 1.1//EN" "http://www.w3.org/Graphics/SVG/1.1/DTD/svg11.dtd">
<svg width="100%" height="100%" viewBox="0 0 1000 1000" version="1.1" xmlns="http://www.w3.org/2000/svg" xmlns:xlink="http://www.w3.org/1999/xlink" xml:space="preserve" xmlns:serif="http://www.serif.com/" style="fill-rule:evenodd;clip-rule:evenodd;stroke-linejoin:round;stroke-miterlimit:1.41421;">
    <g transform="matrix(9,0,0,9,50,50)">
        <path d="M20,40C23.7,40 26.9,38 28.7,35L30,35C35.5,35 39.1,39.9 43.3,47.8C43.5,47.5 43.6,47.1 43.8,46.8C45.3,43.8 47,40.5 48.9,37.4C44.5,30.5 38.8,25 30,25L28.7,25C27,22 23.7,20 20,20C14.5,20 10,24.5 10,30C10,35.5 14.5,40 20,40Z" style="fill:rgb(255,205,0);"/>
    </g>
    <g transform="matrix(9,0,0,9,50,50)">
        <path d="M80,60C76.3,60 73.1,62 71.3,65L70,65C64.6,65 61,60.2 56.8,52.2C56.6,52.5 56.5,52.8 56.3,53.1C54.8,56.2 53.1,59.5 51.2,62.6C55.6,69.5 61.2,75 70,75L71.3,75C73,78 76.3,80 80,80C85.5,80 90,75.5 90,70C90,64.5 85.5,60 80,60Z" style="fill:rgb(255,205,0);"/>
    </g>
    <g transform="matrix(9,0,0,9,50,50)">
        <path d="M70,35L71.3,35C73,38 76.3,40 80,40C85.5,40 90,35.5 90,30C90,24.5 85.5,20 80,20C76.3,20 73.1,22 71.3,25L70,25C57,25 50.9,37.1 45.6,47.7C40.4,58.2 36.4,65 30,65L28.7,65C27,62 23.7,60 20,60C14.5,60 10,64.5 10,70C10,75.5 14.5,80 20,80C23.7,80 26.9,78 28.7,75L30,75C43.1,75 49.2,62.9 54.5,52.2C59.9,41.5 63.6,35 70,35Z"/>
    </g>
    <g>
        <g transform="matrix(9,0,0,9,50,50)">
            <path d="M20,24C23.3,24 26,26.7 26,30C26,33.3 23.3,36 20,36C16.7,36 14,33.3 14,30C14,26.7 16.7,24 20,24Z" style="fill:white;"/>
        </g>
        <g transform="matrix(9,0,0,9,50,50)">
            <path d="M80,76C76.7,76 74,73.3 74,70C74,66.7 76.7,64 80,64C83.3,64 86,66.7 86,70C86,73.3 83.3,76 80,76Z" style="fill:white;"/>
        </g>
        <g transform="matrix(9,0,0,9,50,50)">
            <path d="M80,24C83.3,24 86,26.7 86,30C86,33.3 83.3,36 80,36C76.7,36 74,33.3 74,30C74,26.7 76.7,24 80,24Z" style="fill:white;"/>
        </g>
        <g transform="matrix(9,0,0,9,50,50)">
            <path d="M20,76C16.7,76 14,73.3 14,70C14,66.7 16.7,64 20,64C23.3,64 26,66.7 26,70C26,73.3 23.3,76 20,76Z" style="fill:white;"/>
        </g>
    </g>
</svg>
